<?xml version="1.0" standalone="no"?>
<!DOCTYPE svg PUBLIC "-//W3C//DTD SVG 20010904//EN"
 "http://www.w3.org/TR/2001/REC-SVG-20010904/DTD/svg10.dtd">
<svg version="1.0" xmlns="http://www.w3.org/2000/svg"
 width="142.000000pt" height="142.000000pt" viewBox="0 0 142.000000 142.000000"
 preserveAspectRatio="xMidYMid meet">
<metadata>
Created by potrace 1.14, written by Peter Selinger 2001-2017
</metadata>
<g transform="translate(0.000000,142.000000) scale(0.100000,-0.100000)"
fill="#000000" stroke="none">
<path d="M645 1414 c-11 -2 -45 -9 -75 -15 -107 -22 -270 -107 -312 -163 -15
-20 -15 -26 -3 -42 11 -16 25 -19 82 -17 74 2 248 44 383 92 46 16 87 28 91
25 13 -8 -12 -64 -36 -80 -36 -23 -148 -42 -330 -55 -179 -12 -239 -27 -301
-74 -32 -24 -85 -122 -103 -190 -30 -113 -21 -292 18 -380 28 -62 93 -129 151
-154 50 -21 190 -39 190 -24 0 5 21 9 48 9 44 2 178 37 247 65 35 14 43 16
114 27 84 14 210 -3 226 -29 12 -18 -16 -108 -46 -149 -16 -23 -50 -50 -79
-65 -67 -34 -200 -65 -281 -65 -66 0 -91 -10 -102 -42 -16 -46 82 -88 208 -88
172 0 394 107 511 246 48 57 105 146 122 189 19 48 42 157 42 197 0 140 -122
212 -360 210 -117 -1 -182 -12 -380 -66 -52 -15 -105 -28 -117 -31 -13 -2 -27
-6 -33 -10 -5 -3 -10 -1 -10 5 0 7 -6 8 -19 0 -25 -13 -171 -13 -206 0 -21 8
-25 14 -20 33 23 73 150 132 350 162 78 12 87 13 133 16 24 1 45 6 48 11 3 4
13 4 22 -1 9 -5 25 -6 36 -2 12 4 46 9 76 10 141 6 256 39 302 88 17 18 23 36
23 70 0 43 -4 48 -67 109 -72 68 -207 141 -303 164 -54 13 -207 22 -240 14z"/>
</g>
</svg>
